<!-- Generated by IcoMoon.io -->
<svg version="1.1" xmlns="http://www.w3.org/2000/svg" width="34" height="32" viewBox="0 0 34 32">
<title>access-anywhere</title>
<path fill="#62e0d9" d="M1.016 21.935v-3.275h29.176v3.275h-29.176zM21.216 26.848h1.618v1.448h-14.459v-1.448h1.617c0.269 0 0.486-0.217 0.486-0.485v-3.457h10.252v3.457c0 0.268 0.217 0.485 0.486 0.485zM1.016 17.688v-16.478h29.176v16.478h-29.176zM0.529 0.24c-0.269 0-0.486 0.217-0.486 0.485v21.695c0 0.269 0.217 0.486 0.486 0.486h8.976v2.971h-1.618c-0.269 0-0.486 0.218-0.486 0.486v2.418c0 0.267 0.217 0.486 0.486 0.486h15.432c0.268 0 0.486-0.218 0.486-0.486v-2.419c0-0.267-0.218-0.486-0.486-0.486h-1.618v-2.971h8.976c0.269 0 0.487-0.217 0.487-0.486v-21.694c0-0.269-0.218-0.486-0.486-0.486h-30.149z"></path>
<path fill="#62e0d9" d="M14.938 19.66c-0.268 0-0.486 0.217-0.486 0.486s0.218 0.486 0.486 0.486 0.486-0.218 0.486-0.486v0c0-0.268-0.218-0.486-0.486-0.486z"></path>
<path fill="#181f2b" stroke="#62e0d9" stroke-linejoin="miter" stroke-linecap="butt" stroke-miterlimit="4" stroke-width="0.6732" d="M24.066 9.801h8.491c0.558 0 1.010 0.452 1.010 1.010v19.639c0 0.558-0.452 1.010-1.010 1.010h-8.491c-0.558 0-1.010-0.452-1.010-1.010v-19.639c0-0.558 0.452-1.010 1.010-1.010z"></path>
<path fill="#fff" stroke="#62e0d9" stroke-linejoin="miter" stroke-linecap="butt" stroke-miterlimit="4" stroke-width="0.5982" d="M23.018 12.191h10.586v0.41h-10.586zM23.018 27.727h10.586v0.41h-10.586z"></path>
<path fill="none" stroke="#62e0d9" stroke-linejoin="miter" stroke-linecap="butt" stroke-miterlimit="4" stroke-width="0.4144" d="M28.554 29.37c0 0.268-0.218 0.485-0.486 0.485s-0.486-0.217-0.486-0.485c0-0.268 0.218-0.485 0.486-0.485s0.486 0.217 0.486 0.485z"></path>
<path fill="#62e0d9" d="M18.626 6.551h-0.081l-2.148 0.849-2.432-0.849-2.269 0.769c-0.081 0.040-0.162 0.081-0.162 0.202v6.109c0 0.122 0.081 0.203 0.203 0.203h0.081l2.148-0.85 2.432 0.849 2.269-0.768c0.081-0.041 0.162-0.121 0.162-0.202v-6.109c0-0.121-0.081-0.202-0.203-0.202zM16.397 12.62l-2.432-0.819v-4.642l2.432 0.819v4.642z"></path>
<path fill="#fff" d="M12.507 6.551c-0.542 0-0.972 0.376-0.972 0.849 0 0.632 0.972 1.578 0.972 1.578s0.973-0.947 0.973-1.578c0-0.473-0.431-0.85-0.972-0.85zM12.507 7.765c-0.209 0-0.374-0.148-0.374-0.337s0.164-0.337 0.374-0.337 0.374 0.148 0.374 0.337c0 0.189-0.165 0.337-0.374 0.337z"></path>
</svg>
