<!-- Generated by IcoMoon.io -->
<svg version="1.1" xmlns="http://www.w3.org/2000/svg" width="46" height="32" viewBox="0 0 46 32">
<title>any-file</title>
<path fill="none" stroke="#62e0d9" stroke-linejoin="round" stroke-linecap="round" stroke-miterlimit="4" stroke-width="0.7025" d="M42.794 29.5c1.218 0 2.206-0.928 2.206-2.073v-22.808c0-0.763-0.659-1.382-1.471-1.382l-0.735 26.264zM7.5 6.024v20.023c0 1.907 1.549 3.453 3.46 3.453h31.834c-0.001 0-0.002 0-0.002 0-1.144 0-2.072-0.927-2.074-2.071v-25.548c-0.001-0.763-0.62-1.381-1.383-1.381-0 0-0.001 0-0.001 0h-8.305l-2.768 4.143h-19.377c-0 0-0.001 0-0.001 0-0.763 0-1.382 0.618-1.383 1.381v0z"></path>
<path fill="#62e0d9" d="M20.64 13.78v1.601c0 0.53 0.421 0.96 0.94 0.96h1.565zM24.398 16.341v-0.11c0-0.339-0.132-0.665-0.367-0.905l-2.397-2.451c-0.225-0.231-0.539-0.374-0.886-0.375h-6.995c-0.693 0-1.252 0.573-1.252 1.28v13.445c0 0.707 0.56 1.28 1.252 1.28h9.393c0.692 0 1.253-0.573 1.253-1.28v-4.482z"></path>
<path fill="none" stroke="#fff" stroke-linejoin="round" stroke-linecap="butt" stroke-miterlimit="4" stroke-width="0.4015" d="M16.883 24.665v1.92h1.878l5.949-6.082-1.878-1.921-5.949 6.082zM24.71 20.503l0.664-0.679c0.17-0.175 0.275-0.415 0.275-0.679s-0.105-0.504-0.276-0.68l0 0-0.55-0.562c-0.168-0.174-0.404-0.281-0.664-0.281s-0.496 0.108-0.664 0.281l-0 0-0.664 0.679 1.878 1.921z"></path>
<path fill="#62e0d9" d="M16.183 29.716c0 0.986-0.805 1.786-1.798 1.786h-12.588c-0.993 0-1.798-0.8-1.798-1.786v-8.93c0-0.986 0.805-1.786 1.798-1.786h12.588c0.992 0 1.798 0.8 1.798 1.786v8.93zM5.394 22.275c-0.003 0.822-0.671 1.488-1.494 1.488-0.002 0-0.004 0-0.005 0h0c-0.002 0-0.003 0-0.005 0-0.823 0-1.49-0.666-1.494-1.488v-0c0.003-0.823 0.67-1.488 1.494-1.488 0.002 0 0.004 0 0.005 0h-0c0.002 0 0.003 0 0.005 0 0.823 0 1.491 0.666 1.494 1.488v0z"></path>
</svg>
