<!-- Generated by IcoMoon.io -->
<svg version="1.1" xmlns="http://www.w3.org/2000/svg" width="39" height="32" viewBox="0 0 39 32">
<title>collaboration</title>
<path fill="none" stroke="#62e0d9" stroke-linejoin="round" stroke-linecap="round" stroke-miterlimit="4" stroke-width="0.5859" d="M15.278 5.11v0zM15.278 23.387v0zM24.431 15.162v0zM6.123 15.162h0zM14.82 18.817h-0c0.001 0 0.002 0 0.003 0 0.378 0 0.721-0.153 0.969-0.401l13.273-13.251-1.943-1.938-12.302 12.282-4.924-4.915-1.942 1.938 5.895 5.885c0.267 0.268 0.619 0.401 0.97 0.401zM25.255 5.108l1.666 2.198c1.323 2.153 2.087 4.687 2.087 7.399 0 7.822-6.353 14.165-14.189 14.165s-14.189-6.342-14.189-14.165c0-7.822 6.353-14.164 14.188-14.164 4.128 0 7.844 1.76 10.436 4.567zM23.301 7.038c-2.098-2.311-5.114-3.756-8.468-3.756-0.005 0-0.010 0-0.015 0h0.001c-6.32 0-11.442 5.114-11.442 11.423s5.123 11.423 11.442 11.423 11.442-5.114 11.442-11.423c0-1.951-0.49-3.787-1.353-5.393l-1.607-2.274z"></path>
<path fill="none" stroke="#62e0d9" stroke-linejoin="round" stroke-linecap="butt" stroke-miterlimit="4" stroke-width="0.5859" d="M24.955 18.246c0 1.118-0.908 2.024-2.027 2.024-0 0-0.001 0-0.001 0-1.118 0-2.024-0.906-2.025-2.024v-0c0-1.118 0.908-2.024 2.027-2.024 0.001 0 0.001 0 0.002 0 1.118 0 2.024 0.906 2.025 2.024v0z"></path>
<path fill="none" stroke="#62e0d9" stroke-linejoin="round" stroke-linecap="round" stroke-miterlimit="4" stroke-width="0.5859" d="M22.927 20.27c-0.855 0-1.628 0.263-2.181 0.52-0.512 0.247-0.86 0.763-0.86 1.36 0 0.003 0 0.005 0 0.008v-0 3.172c0.001 0.559 0.454 1.012 1.013 1.012 0 0 0 0 0 0h-0v4.047c0 0.559 0.454 1.012 1.013 1.012 0 0 0.001 0 0.001 0h2.027c0 0 0.001 0 0.001 0 0.559 0 1.012-0.453 1.013-1.012v-4.047c0 0 0 0 0 0 0.559 0 1.012-0.453 1.013-1.011v-3.172c0-0.002 0-0.005 0-0.007 0-0.597-0.347-1.112-0.851-1.356l-0.009-0.004c-0.553-0.257-1.325-0.52-2.181-0.52z"></path>
<path fill="none" stroke="#62e0d9" stroke-linejoin="round" stroke-linecap="butt" stroke-miterlimit="4" stroke-width="0.5859" d="M31.035 18.246c0 1.118-0.908 2.024-2.027 2.024-0.001 0-0.001 0-0.002 0-1.118 0-2.024-0.906-2.025-2.024v-0c0-1.118 0.908-2.024 2.027-2.024 0.001 0 0.001 0 0.002 0 1.118 0 2.024 0.906 2.025 2.024v0z"></path>
<path fill="none" stroke="#62e0d9" stroke-linejoin="round" stroke-linecap="round" stroke-miterlimit="4" stroke-width="0.5859" d="M29.008 20.27c-0.855 0-1.628 0.263-2.181 0.52-0.512 0.247-0.86 0.763-0.86 1.36 0 0.003 0 0.005 0 0.008v-0 3.172c0 0.559 0.454 1.012 1.013 1.012 0 0 0.001 0 0.001 0h-0v4.047c0.001 0.559 0.454 1.012 1.013 1.012 0 0 0 0 0 0h2.027c0 0 0 0 0 0 0.559 0 1.012-0.453 1.013-1.012v-4.047c0 0 0.001 0 0.001 0 0.559 0 1.012-0.453 1.013-1.011v-3.172c0-0.002 0-0.005 0-0.007 0-0.597-0.347-1.113-0.851-1.356l-0.009-0.004c-0.553-0.257-1.326-0.52-2.181-0.52z"></path>
<path fill="none" stroke="#62e0d9" stroke-linejoin="round" stroke-linecap="butt" stroke-miterlimit="4" stroke-width="0.5859" d="M37.116 18.246c0 1.118-0.907 2.024-2.027 2.024-0.001 0-0.001 0-0.002 0-1.118 0-2.024-0.906-2.025-2.024v-0c0-1.118 0.907-2.024 2.027-2.024 0.001 0 0.001 0 0.002 0 1.118 0 2.024 0.906 2.025 2.024v0z"></path>
<path fill="none" stroke="#62e0d9" stroke-linejoin="round" stroke-linecap="round" stroke-miterlimit="4" stroke-width="0.5859" d="M35.089 20.27c-0.855 0-1.628 0.263-2.181 0.52-0.512 0.247-0.859 0.763-0.859 1.36 0 0.003 0 0.005 0 0.008v-0 3.172c0.001 0.559 0.454 1.012 1.013 1.012 0 0 0.001 0 0.001 0h-0v4.047c0.001 0.559 0.454 1.012 1.013 1.012 0 0 0 0 0 0h2.027c0 0 0 0 0 0 0.559 0 1.012-0.453 1.013-1.012v-4.047c0 0 0.001 0 0.001 0 0.559 0 1.012-0.453 1.013-1.011v-3.172c0-0.002 0-0.005 0-0.007 0-0.597-0.347-1.112-0.851-1.356l-0.009-0.004c-0.553-0.257-1.326-0.52-2.181-0.52z"></path>
</svg>
