<!-- Generated by IcoMoon.io -->
<svg version="1.1" xmlns="http://www.w3.org/2000/svg" width="32" height="32" viewBox="0 0 32 32">
<title>icon-arrow</title>
<path fill="#000" d="M28 16c0 6.627-5.373 12-12 12s-12-5.373-12-12c0-6.627 5.373-12 12-12s12 5.373 12 12z"></path>
<path fill="#62e0d9" d="M28 16c0 6.627-5.373 12-12 12s-12-5.373-12-12c0-6.627 5.373-12 12-12s12 5.373 12 12z"></path>
<path fill="#1b2330" d="M17.164 12l-0.726 0.7 2.904 2.8h-8.676v1h8.676l-2.902 2.8 0.726 0.7 4.148-4z"></path>
</svg>
