<!-- Generated by IcoMoon.io -->
<svg version="1.1" xmlns="http://www.w3.org/2000/svg" width="108" height="32" viewBox="0 0 108 32">
<title>logo</title>
<path fill="#fff" d="M0 10.075v0.079l18.31 8.47 18.375-8.499v-0.022l-18.375-8.498-18.31 8.47zM6.601 10.114l11.71-5.417 11.711 5.417-11.711 5.416-11.709-5.416zM18.31 21.914l-18.31-8.343v3.086l18.31 8.363 18.375-8.391v-3.086l-18.375 8.372zM18.31 28.172l-18.31-8.345v3.086l18.31 8.364 18.375-8.391v-3.086l-18.375 8.372zM104.133 16.135c0-0.012 0-0.027 0-0.042 0-1.386-0.535-2.647-1.409-3.587l0.003 0.003c-0.422-0.451-0.927-0.818-1.492-1.076l-0.029-0.012c-0.538-0.247-1.166-0.391-1.829-0.391-0.009 0-0.019 0-0.028 0h0.001c-0.008-0-0.017-0-0.027-0-0.662 0-1.291 0.144-1.857 0.403l0.028-0.011c-0.595 0.27-1.1 0.637-1.519 1.085l-0.002 0.003c-0.871 0.938-1.406 2.198-1.406 3.584 0 0.015 0 0.030 0 0.044v-0.002c-0 0.013-0 0.027-0 0.042 0 1.386 0.535 2.647 1.409 3.587l-0.003-0.003c0.422 0.451 0.927 0.817 1.492 1.075l0.030 0.012c0.538 0.248 1.167 0.392 1.83 0.392 0.009 0 0.018-0 0.027-0h-0.001c0.008 0 0.016 0 0.025 0 0.663 0 1.292-0.144 1.858-0.404l-0.028 0.011c0.595-0.27 1.1-0.637 1.519-1.085l0.002-0.003c0.871-0.937 1.406-2.198 1.406-3.584 0-0.015-0-0.030-0-0.045v0.002zM108.308 16.135c0 1.258-0.232 2.423-0.695 3.496-0.469 1.086-1.115 2.012-1.912 2.783l-0.002 0.002c-0.812 0.783-1.764 1.402-2.855 1.857s-2.257 0.682-3.494 0.682-2.396-0.228-3.479-0.682c-1.102-0.463-2.044-1.094-2.843-1.873l0.002 0.002c-0.796-0.78-1.442-1.709-1.892-2.744l-0.022-0.056c-0.463-1.073-0.695-2.229-0.695-3.466 0-1.218 0.237-2.364 0.71-3.438 0.484-1.093 1.133-2.026 1.927-2.813l0.001-0.001c0.795-0.785 1.738-1.421 2.783-1.864l0.058-0.022c1.082-0.455 2.232-0.682 3.45-0.682 1.237 0 2.401 0.227 3.494 0.682s2.044 1.073 2.855 1.857c0.812 0.783 1.45 1.716 1.914 2.799s0.695 2.243 0.695 3.481zM88.971 24.433c-0.318 0.151-0.691 0.281-1.079 0.37l-0.038 0.007c-0.383 0.092-0.823 0.145-1.275 0.145-0.005 0-0.010 0-0.015-0h0.001c-0.618 0-1.213-0.082-1.783-0.246-0.577-0.164-1.077-0.439-1.498-0.802l0.005 0.004c-0.425-0.367-0.763-0.846-1.015-1.436s-0.377-1.3-0.377-2.132v-19.901h4.262v19.175c0 0.697 0.14 1.175 0.42 1.436s0.614 0.392 1 0.392c0.484 0 0.948-0.145 1.392-0.435v3.423zM80.012 7.723l-7.538 19.93c-0.56 1.489-1.295 2.562-2.203 3.22s-1.991 0.986-3.247 0.986c-0.226-0.002-0.447-0.017-0.664-0.047l0.027 0.003c-0.255-0.032-0.481-0.077-0.7-0.138l0.034 0.008-1.392-3.887c0.288 0.14 0.626 0.264 0.977 0.355l0.038 0.008c0.295 0.079 0.633 0.127 0.983 0.13h0.002c0.658 0 1.257-0.15 1.798-0.449s0.956-0.856 1.246-1.668l0.58-1.682-6.465-16.768h4.551l3.856 10.791 3.624-10.791h4.494zM62.473 5.199h-10.9v5.396h10.756v3.655h-10.756v10.27h-4.406v-23.179h15.306v3.858z"></path>
</svg>
