<!-- Generated by IcoMoon.io -->
<svg version="1.1" xmlns="http://www.w3.org/2000/svg" width="32" height="32" viewBox="0 0 32 32">
<title>phone</title>
<path fill="#fff" d="M30.222 22.222c-2.133 0-4.267-0.356-6.4-1.067-0.533-0.178-1.244 0-1.778 0.356l-3.911 3.911c-4.978-2.489-9.067-6.756-11.733-11.733l3.911-3.911c0.533-0.533 0.711-1.244 0.356-1.778-0.533-1.956-0.889-4.089-0.889-6.222 0-1.067-0.711-1.778-1.778-1.778h-6.222c-1.067 0-1.778 0.711-1.778 1.778 0 16.711 13.511 30.222 30.222 30.222 1.067 0 1.778-0.711 1.778-1.778v-6.222c0-1.067-0.711-1.778-1.778-1.778zM28.444 16h3.556c0-8.889-7.111-16-16-16v3.556c6.933 0 12.444 5.511 12.444 12.444zM21.333 16h3.556c0-4.978-3.911-8.889-8.889-8.889v3.556c3.022 0 5.333 2.311 5.333 5.333z"></path>
</svg>
