<!-- Generated by IcoMoon.io -->
<svg version="1.1" xmlns="http://www.w3.org/2000/svg" width="25" height="32" viewBox="0 0 25 32">
<title>security</title>
<path fill="none" stroke="#62e0d9" stroke-linejoin="miter" stroke-linecap="butt" stroke-miterlimit="4" stroke-width="1.1142" d="M15.892 12.909l-4.447 4.536-3.272-3.337-1.636 1.669 4.908 5.006 7.494-7.642-1.636-1.669z"></path>
<path fill="none" stroke="#62e0d9" stroke-linejoin="miter" stroke-linecap="butt" stroke-miterlimit="4" stroke-width="1.1142" d="M20.697 3.582c-1.943 0-3.874-0.413-5.63-1.267-0.841-0.405-1.701-0.921-2.445-1.564-0.744 0.643-1.604 1.16-2.445 1.564-1.756 0.854-3.687 1.267-5.629 1.267h-3.851v14.76c0 2.585 1.024 5.071 2.846 6.87 2.675 2.636 9.080 6.063 9.080 6.063s6.404-3.427 9.079-6.063c1.822-1.799 2.846-4.285 2.846-6.87v-14.76h-3.851z"></path>
<path fill="none" stroke="#62e0d9" stroke-linejoin="miter" stroke-linecap="butt" stroke-miterlimit="4" stroke-width="1.1142" d="M21.433 8.921v9.545c0 1.724-0.692 3.396-1.898 4.587-1.677 1.653-5.501 3.916-6.913 4.727-1.413-0.812-5.24-3.077-6.915-4.729-1.205-1.19-1.896-2.861-1.896-4.586v-11.583h0.736c2.439 0 4.849-0.545 6.97-1.576 0.465-0.223 0.827-0.418 1.181-0.627l-0.075 0.041c0.353 0.205 0.727 0.404 1.114 0.59 2.114 1.028 4.521 1.571 6.96 1.571h0.736v2.038z"></path>
</svg>
